<svg xmlns="http://www.w3.org/2000/svg" viewBox="0 0 100 100">
  <rect width="100" height="100" rx="15" fill="#FF9900"/>
  <g fill="#000">
    <path d="M69.8 62.7c-1.8-1.3-3.5-.7-5.2.2-.8.4-1.5.9-2.3 1.3-7.8 4.5-16.4 6.5-25.5 6.2-8.5-.3-16.4-2.5-23.5-7.2-.5-.3-1-.7-1.5-1-.6-.4-1.2-.3-1.5.3-.3.6-.1 1.1.4 1.5.5.4 1 .8 1.5 1.2 7.4 5.1 15.6 7.9 24.5 8.5 10.5.7 20.3-1.5 29.2-7.1 1.1-.7 2.2-1.5 3.3-2.2.5-.4.7-.9.6-1.7z"/>
    <path d="M74.6 58.5c-.5-.7-1.3-.8-2.1-.4-.5.3-.4.7-.1 1.1.2.3.4.5.6.8.9 1.2.7 2.5-.5 3.4-1.5 1.1-3.1 1.8-4.9 2.3-.5.1-.9.4-.8 1 .1.5.5.8 1 .7 2.2-.5 4.2-1.4 5.9-2.8 1.9-1.6 2-3.7.9-6.1z"/>
  </g>
  <text x="50" y="45" font-family="Arial, sans-serif" font-size="12" font-weight="bold" fill="#000" text-anchor="middle">amazon</text>
  <text x="50" y="58" font-family="Arial, sans-serif" font-size="10" fill="#000" text-anchor="middle">store</text>
</svg>
