<svg width="58" height="29" viewBox="0 0 58 29" fill="none" xmlns="http://www.w3.org/2000/svg">
<path d="M5.51 14.5C5.51 9.541 9.541 5.51 14.5 5.51H26.1V0H14.5C10.6544 0 6.96623 1.52767 4.24695 4.24695C1.52767 6.96623 0 10.6544 0 14.5C0 18.3456 1.52767 22.0338 4.24695 24.753C6.96623 27.4723 10.6544 29 14.5 29H26.1V23.49H14.5C9.541 23.49 5.51 19.459 5.51 14.5ZM17.4 17.4H40.6V11.6H17.4V17.4ZM43.5 0H31.9V5.51H43.5C48.459 5.51 52.49 9.541 52.49 14.5C52.49 19.459 48.459 23.49 43.5 23.49H31.9V29H43.5C47.3456 29 51.0338 27.4723 53.7531 24.753C56.4723 22.0338 58 18.3456 58 14.5C58 10.6544 56.4723 6.96623 53.7531 4.24695C51.0338 1.52767 47.3456 0 43.5 0Z" fill="#D948EF"/>
</svg>
